G04*
G04 #@! TF.GenerationSoftware,Altium Limited,Altium Designer,22.6.1 (34)*
G04*
G04 Layer_Color=128*
%FSLAX24Y24*%
%MOIN*%
G70*
G04*
G04 #@! TF.SameCoordinates,1D390871-080F-446A-952D-7172D4596CCB*
G04*
G04*
G04 #@! TF.FilePolarity,Positive*
G04*
G01*
G75*
%ADD14R,0.0177X0.0591*%
%ADD15O,0.0177X0.0591*%
%ADD16R,0.0380X0.0315*%
%ADD18O,0.0571X0.2756*%
%ADD19R,0.0571X0.2756*%
D14*
X27333Y-30354D02*
D03*
X21033D02*
D03*
D15*
X27589D02*
D03*
X27844D02*
D03*
X28100D02*
D03*
X28356D02*
D03*
X28612D02*
D03*
X28868D02*
D03*
X29124D02*
D03*
X29380D02*
D03*
X29636D02*
D03*
X29892D02*
D03*
X30148D02*
D03*
X27333Y-32638D02*
D03*
X27589D02*
D03*
X27844D02*
D03*
X28100D02*
D03*
X28356D02*
D03*
X28612D02*
D03*
X28868D02*
D03*
X29124D02*
D03*
X29380D02*
D03*
X29636D02*
D03*
X29892D02*
D03*
X30148D02*
D03*
X21289Y-30354D02*
D03*
X21545D02*
D03*
X21801D02*
D03*
X22057D02*
D03*
X22313D02*
D03*
X22569D02*
D03*
X22825D02*
D03*
X23081D02*
D03*
X23337D02*
D03*
X23593D02*
D03*
X23848D02*
D03*
X21033Y-32638D02*
D03*
X21289D02*
D03*
X21545D02*
D03*
X21801D02*
D03*
X22057D02*
D03*
X22313D02*
D03*
X22569D02*
D03*
X22825D02*
D03*
X23081D02*
D03*
X23337D02*
D03*
X23593D02*
D03*
X23848D02*
D03*
D16*
X30709Y-29921D02*
D03*
Y-30541D02*
D03*
Y-32510D02*
D03*
Y-31890D02*
D03*
X20472Y-32510D02*
D03*
Y-31890D02*
D03*
Y-29921D02*
D03*
Y-30541D02*
D03*
D18*
X12126Y-37598D02*
D03*
X15108D02*
D03*
X22067D02*
D03*
X28031D02*
D03*
X10138D02*
D03*
X11132D02*
D03*
X13120D02*
D03*
X14114D02*
D03*
X16102D02*
D03*
X17096D02*
D03*
X18091D02*
D03*
X19085D02*
D03*
X20079D02*
D03*
X23061D02*
D03*
X24055D02*
D03*
X26043D02*
D03*
X27037D02*
D03*
X30020D02*
D03*
X21073D02*
D03*
X25049D02*
D03*
X29026D02*
D03*
D19*
X9144D02*
D03*
X31014D02*
D03*
M02*
