M48
;Layer_Color=9474304
;FILE_FORMAT=2:4
INCH,LZ
;TYPE=PLATED
T1F00S00C0.0118
T2F00S00C0.0276
T3F00S00C0.0394
%
T01
X006693Y-033376
X007283Y-032418
X009252Y-03311
X009754Y-032194
X01122Y-03251
X010839Y-030934
X012421Y-028622
X014646
X015157Y-030885
X015551Y-032194
X013819Y-03311
X013976Y-034843
X01437
X014961
X015354
X013189
X012795
X012205
X011811Y-034845
X01122Y-034843
X010827Y-034845
X010236
X009843Y-034843
X008858
X007451Y-029921
X004528Y-025
X016007Y-028622
X01878
X019291Y-030885
X019882Y-03189
X019685Y-03251
X018583Y-033937
X018307Y-034845
X017913
X017323
X016929Y-034843
X016339Y-034845
X015948
X017441Y-033425
X017192Y-033073
X017707Y-033071
X018898Y-034843
X019291
X019882
X020276
X020866Y-034845
X02126Y-034843
X02185
X022244
X022835Y-034845
X023228Y-034843
X023819
X024213
X024803
X025197
X025787
X026181
X026772Y-034845
X027165Y-034843
X027756
X02815
X02874
X029134
X029724
X030118
X030041Y-034363
X029958Y-033363
X029409Y-033386
Y-033784
X028724Y-03387
X029134Y-033081
X029652
X030709Y-034843
X031102
X027756Y-034202
X024815Y-03251
Y-030512
X023593Y-030898
X027362Y-02937
X026181Y-028071
X025571Y-027147
X026575Y-025197
Y-024606
Y-024016
X021073Y-025709
X031152Y-029488
X026575Y-023425
Y-022835
Y-022244
Y-021654
Y-021063
X024173Y-02248
X024409Y-015012
X024803Y-014012
X025197Y-013012
X025591Y-012012
X025984Y-011012
X026378Y-010012
X026772Y-009012
X012008Y-01811
Y-018898
X004331Y-021407
X021654Y-006496
X022244Y-005512
X022638Y-004512
X023425Y-003512
X024803Y-002512
X025591Y-001512
X026377Y-000511
X029724Y-007283
X03189Y004724
X03248
X033071
X033661
X036024Y002362
X036417Y001575
X036811Y000787
T02
X002827Y-033039
Y-032039
Y-031039
Y-030039
Y-029039
Y-028039
Y-027039
Y-026039
X005827
Y-027039
Y-028039
Y-029039
Y-030039
Y-031039
Y-032039
Y-033039
T03
X03837Y-014055
X03937
Y-013055
Y-012055
Y-011055
Y-010055
Y-009055
X03837
Y-010055
Y-011055
Y-012055
Y-013055
X02874Y-013012
X02774
Y-012012
Y-011012
Y-010012
Y-009012
Y-008012
X02874
Y-009012
Y-010012
Y-011012
Y-012012
Y-014012
X02774
Y-015012
X02874
X01074
Y-014012
Y-013012
Y-012012
Y-011012
Y-010012
X00974
Y-011012
Y-012012
Y-013012
Y-014012
Y-015012
Y-008012
X01074
Y-007012
X00974
Y-006012
Y-005012
Y-004012
Y-003012
Y-002012
Y-001012
X01074Y-005012
Y-006012
X02774Y-005512
Y-004512
Y-003512
Y-002512
Y-001512
Y-000512
Y000488
X02874
Y001488
Y002488
Y-000512
Y-001512
Y-002512
Y-003512
Y-004512
Y-005512
Y-006512
X02774
X03837Y-005
X03937
Y-004
Y-003
Y-002
Y-001
Y0
X03837
Y-001
Y-002
Y-003
Y-004
M30
