G04*
G04 #@! TF.GenerationSoftware,Altium Limited,Altium Designer,19.0.15 (446)*
G04*
G04 Layer_Physical_Order=2*
G04 Layer_Color=16711680*
%FSLAX42Y42*%
%MOMM*%
G71*
G01*
G75*
%ADD11C,0.25*%
%ADD37R,0.60X0.60*%
%ADD38R,0.90X0.85*%
%ADD41R,0.85X0.90*%
%ADD43R,0.60X0.60*%
%ADD49O,1.45X7.00*%
%ADD50R,1.45X7.00*%
%ADD52O,3.00X2.00*%
%ADD53C,2.00*%
%ADD54O,2.00X2.50*%
%ADD55C,1.52*%
%ADD56O,1.20X2.50*%
%ADD57R,1.20X2.50*%
%ADD58C,0.60*%
%ADD59C,0.70*%
D11*
X4302Y-900D02*
Y-152D01*
X4300Y-150D02*
X4302Y-152D01*
Y-900D02*
X4452Y-1050D01*
X7882D01*
X9650Y-1200D02*
Y-933D01*
X9467Y-750D02*
X9650Y-933D01*
Y-1200D02*
X9943Y-1493D01*
Y-2140D02*
Y-1493D01*
X9350Y-200D02*
X9400Y-150D01*
X9350Y-1090D02*
Y-200D01*
Y-1090D02*
X9800Y-1540D01*
X9467Y-917D02*
Y-900D01*
Y-917D02*
X9600Y-1050D01*
Y-1218D02*
Y-1050D01*
X9467Y-1145D02*
X9843Y-1522D01*
X9467Y-1145D02*
Y-1050D01*
X3448Y-3444D02*
Y-3197D01*
Y-3550D02*
Y-3444D01*
Y-3550D02*
X4207D01*
X4265Y-3491D01*
X1750Y-4459D02*
X2000D01*
X3589Y-3450D02*
Y-3411D01*
X3850Y-3150D01*
X4792D01*
X5200Y-3050D02*
X5376Y-2874D01*
X5566D01*
X1050Y-4200D02*
X1100Y-4150D01*
X1050Y-4776D02*
Y-4200D01*
Y-4776D02*
X1300Y-5026D01*
X2000D01*
X3750Y-3450D02*
X3900Y-3300D01*
X4606D01*
X4777Y-3471D01*
X10050Y-5551D02*
Y-4004D01*
X9101Y-6500D02*
X10050Y-5551D01*
X6871Y-7232D02*
X6872Y-7233D01*
X5787Y-7232D02*
X6871D01*
X7202Y-7208D02*
Y-5735D01*
X4278Y-7377D02*
X7033D01*
X7202Y-5735D02*
X7356Y-5580D01*
X7033Y-7377D02*
X7202Y-7208D01*
X3588Y-6318D02*
X3820Y-6550D01*
X1847Y-6318D02*
X3588D01*
X5055Y-5512D02*
Y-4051D01*
X2552Y-8016D02*
X5055Y-5512D01*
Y-4051D02*
X5931Y-3174D01*
X6831Y-5768D02*
Y-5703D01*
X688Y-4726D02*
X714D01*
X684Y-4722D02*
X688Y-4726D01*
X714D02*
X1318Y-5330D01*
X2123D01*
X2700Y-5750D02*
X3632D01*
X5850Y-6300D02*
Y-6088D01*
X6339Y-5599D01*
X6361D01*
X6390Y-5628D01*
X6692D01*
X6831Y-5768D01*
Y-5900D02*
Y-5768D01*
X9500Y-2522D02*
X9900Y-2122D01*
X9843Y-2118D02*
Y-1522D01*
X9443Y-2518D02*
X9843Y-2118D01*
X9800Y-2100D02*
Y-1540D01*
X9400Y-2500D02*
X9800Y-2100D01*
X9900Y-2122D02*
Y-1518D01*
X9600Y-1218D02*
X9900Y-1518D01*
X9930Y-5267D02*
Y-3546D01*
X9550Y-3167D02*
X9930Y-3546D01*
X9550Y-3167D02*
Y-2533D01*
X9943Y-2140D01*
X9886Y-5157D02*
Y-3564D01*
X9500Y-3178D02*
X9886Y-3564D01*
X9500Y-3178D02*
Y-2522D01*
X9097Y-6100D02*
X9930Y-5267D01*
X5981Y-350D02*
Y-169D01*
X6000Y-150D01*
X5981Y-350D02*
X6281Y-650D01*
X7402D01*
X7502Y-750D01*
X8250D01*
X8550Y-450D01*
X9100Y-5943D02*
X9886Y-5157D01*
X9843Y-5050D02*
Y-3582D01*
X9100Y-5793D02*
X9843Y-5050D01*
X9443Y-3182D02*
X9843Y-3582D01*
X9443Y-3182D02*
Y-2518D01*
X9800Y-4930D02*
Y-3600D01*
X9400Y-3200D02*
X9800Y-3600D01*
X9400Y-3200D02*
Y-2500D01*
X7700Y-400D02*
Y-150D01*
Y-400D02*
X7917Y-617D01*
X8110D01*
X7777Y-1618D02*
X9150D01*
Y-150D01*
X7602Y-1794D02*
X7777Y-1618D01*
X9150Y-2000D02*
Y-1618D01*
X9101Y-5628D02*
X9800Y-4930D01*
X4547Y-8594D02*
X4599Y-8646D01*
X7282Y-5775D02*
X7377Y-5680D01*
X7356Y-5580D02*
X7438D01*
X6831Y-5703D02*
X6980Y-5554D01*
X7262D01*
X7973Y-4669D02*
Y-4004D01*
Y-4669D02*
X8180Y-4876D01*
X8600Y-3600D02*
X8900Y-3300D01*
X8600Y-4893D02*
Y-3600D01*
X900Y-400D02*
X1100Y-600D01*
X900Y-400D02*
Y-150D01*
X1100Y-600D02*
X2335D01*
X2350Y-615D01*
Y-648D02*
Y-615D01*
Y-648D02*
X2802Y-1100D01*
X900Y-2000D02*
Y-1700D01*
X1060Y-1540D01*
X1462D01*
X1222Y-4722D02*
X1300Y-4800D01*
X1222Y-4722D02*
Y-3833D01*
X9000Y0D02*
X9150Y-150D01*
X7300Y0D02*
X9000D01*
X7300D02*
X7450Y-150D01*
X5600Y0D02*
X7300D01*
X3900D02*
X5600D01*
X5750Y-150D01*
X3900Y0D02*
X4050Y-150D01*
X2200Y0D02*
X3900D01*
X2200D02*
X2350Y-150D01*
X728Y0D02*
X2200D01*
X714Y-15D02*
X728Y0D01*
X714Y-39D02*
Y-15D01*
X650Y-103D02*
X714Y-39D01*
X650Y-150D02*
Y-103D01*
Y-150D02*
X650Y-150D01*
Y-2000D02*
Y-150D01*
Y-2000D02*
X650Y-2000D01*
X600Y-2500D02*
Y-2299D01*
X650Y-2249D01*
Y-2000D01*
X600Y-2500D02*
X1476Y-3376D01*
Y-3833D02*
Y-3376D01*
X350Y-6850D02*
Y-3968D01*
X460Y-3858D01*
Y-3833D01*
X9700Y-4626D02*
Y-3880D01*
X8370Y-2550D02*
X9700Y-3880D01*
X7066Y-2550D02*
X8370D01*
X6295Y-1794D02*
X7602D01*
X6627Y-1694D02*
X7231D01*
X6477Y-1544D02*
X6627Y-1694D01*
X7231D02*
X7385Y-1540D01*
X6793Y-2924D02*
X8235D01*
X6643Y-2774D02*
X6793Y-2924D01*
X6322Y-2774D02*
X6643D01*
X6811Y-2880D02*
X8253D01*
X6514Y-2584D02*
X6811Y-2880D01*
X6281Y-2584D02*
X6514D01*
X6829Y-2837D02*
X8271D01*
X6495Y-2504D02*
X6829Y-2837D01*
X6381Y-2504D02*
X6495D01*
X6874Y-2751D02*
X8306D01*
X6581Y-2458D02*
X6874Y-2751D01*
X6581Y-2458D02*
Y-2344D01*
X8306Y-2751D02*
X8498Y-2942D01*
X8289Y-2794D02*
X8455Y-2960D01*
X6852Y-2794D02*
X8289D01*
X6482Y-2424D02*
X6852Y-2794D01*
X8271Y-2837D02*
X8412Y-2978D01*
X8253Y-2880D02*
X8368Y-2996D01*
X8235Y-2924D02*
X8325Y-3014D01*
X8498Y-7258D02*
Y-2942D01*
X8455Y-7240D02*
Y-2960D01*
X8412Y-7222D02*
Y-2978D01*
X8368Y-7204D02*
Y-2996D01*
X8325Y-7187D02*
Y-3014D01*
X8217Y-2967D02*
X8282Y-3031D01*
Y-7169D02*
Y-3031D01*
X6324Y-2967D02*
X8217D01*
X6302Y-2944D02*
X6324Y-2967D01*
X3652Y-8594D02*
Y-7824D01*
X3970Y-7069D02*
X4278Y-7377D01*
X4552Y-8594D02*
Y-8569D01*
X5528Y-7593D02*
X7736D01*
X4552Y-8569D02*
X5528Y-7593D01*
X5621Y-7809D02*
X7825D01*
X5552Y-7878D02*
X5621Y-7809D01*
X5552Y-8594D02*
Y-7878D01*
X5599Y-7765D02*
X7807D01*
X5302Y-8063D02*
X5599Y-7765D01*
X5302Y-8744D02*
Y-8063D01*
X5581Y-7722D02*
X7789D01*
X5052Y-8252D02*
X5581Y-7722D01*
X5052Y-8594D02*
Y-8252D01*
X5563Y-7679D02*
X7771D01*
X4802Y-8441D02*
X5563Y-7679D01*
X4802Y-8744D02*
Y-8441D01*
X5546Y-7636D02*
X7754D01*
X4652Y-8530D02*
X5546Y-7636D01*
X4652Y-8594D02*
Y-8530D01*
X5802Y-8617D02*
X6567Y-7852D01*
X5802Y-8744D02*
Y-8617D01*
X6567Y-7852D02*
X7843D01*
X6052Y-8428D02*
X6584Y-7895D01*
X6052Y-8594D02*
Y-8428D01*
X6584Y-7895D02*
X7861D01*
X6629Y-7981D02*
X7897D01*
X6552Y-8058D02*
X6629Y-7981D01*
X6552Y-8594D02*
Y-8058D01*
X6802Y-8572D02*
X7349Y-8025D01*
X6802Y-8744D02*
Y-8572D01*
X7349Y-8025D02*
X7914D01*
X7389Y-8111D02*
X7950D01*
X7302Y-8198D02*
X7389Y-8111D01*
X7302Y-8744D02*
Y-8198D01*
X7950Y-8111D02*
X8954Y-7107D01*
X7367Y-8068D02*
X7932D01*
X7052Y-8383D02*
X7367Y-8068D01*
X7052Y-8594D02*
Y-8383D01*
X7932Y-8068D02*
X8911Y-7089D01*
X7914Y-8025D02*
X8868Y-7071D01*
X7897Y-7981D02*
X8825Y-7053D01*
X6602Y-7938D02*
X7879D01*
X6302Y-8239D02*
X6602Y-7938D01*
X6302Y-8744D02*
Y-8239D01*
X7879Y-7938D02*
X8782Y-7035D01*
X7861Y-7895D02*
X8498Y-7258D01*
X7843Y-7852D02*
X8455Y-7240D01*
X7825Y-7809D02*
X8412Y-7222D01*
X7807Y-7765D02*
X8368Y-7204D01*
X7789Y-7722D02*
X8325Y-7187D01*
X7771Y-7679D02*
X8282Y-7169D01*
X7754Y-7636D02*
X8108Y-7282D01*
X7736Y-7593D02*
X8060Y-7269D01*
X4170Y-7550D02*
X7718D01*
X3860Y-7240D02*
X4170Y-7550D01*
X7718D02*
X8016Y-7251D01*
X4196Y-7506D02*
X7700D01*
X3880Y-7190D02*
X4196Y-7506D01*
X7700D02*
X7973Y-7233D01*
X8954Y-7107D02*
Y-4961D01*
X8911Y-7089D02*
Y-4804D01*
X8868Y-7071D02*
Y-4664D01*
X8825Y-7053D02*
Y-4521D01*
X8782Y-7035D02*
Y-4391D01*
X8108Y-7282D02*
Y-5670D01*
X8060Y-7269D02*
Y-5564D01*
X8016Y-7251D02*
Y-5444D01*
X7973Y-7233D02*
Y-5287D01*
X7930Y-7215D02*
Y-5130D01*
X7682Y-7463D02*
X7930Y-7215D01*
X4223Y-7463D02*
X7682D01*
X8190Y-5588D02*
Y-5430D01*
X8108Y-5670D02*
X8190Y-5588D01*
X8060Y-5564D02*
X8110Y-5514D01*
X8016Y-5444D02*
X8190Y-5270D01*
X7973Y-5287D02*
X8110Y-5150D01*
X8954Y-4961D02*
X9152Y-4764D01*
X8911Y-4804D02*
X9052Y-4664D01*
X8868Y-4664D02*
X8962Y-4570D01*
X8825Y-4521D02*
X8862Y-4484D01*
X2552Y-8594D02*
Y-8016D01*
X3497Y-7140D02*
X3900D01*
X2649Y-7988D02*
X3497Y-7140D01*
X2649Y-8594D02*
Y-7988D01*
X3509Y-7190D02*
X3880D01*
X3302Y-7397D02*
X3509Y-7190D01*
X3302Y-8744D02*
Y-7397D01*
X3520Y-7240D02*
X3860D01*
X3402Y-7358D02*
X3520Y-7240D01*
X3402Y-8744D02*
Y-7358D01*
X5049Y-5580D02*
X5130D01*
X3920Y-6709D02*
X5049Y-5580D01*
X3920Y-7090D02*
Y-6709D01*
X5010Y-5680D02*
X5080D01*
X3970Y-6720D02*
X5010Y-5680D01*
X3970Y-7069D02*
Y-6720D01*
X5012Y-5184D02*
Y-3734D01*
X7282Y-7190D02*
Y-5775D01*
X4250Y-7420D02*
X7052D01*
X3920Y-7090D02*
X4250Y-7420D01*
X1847Y-6318D02*
X2432Y-5734D01*
X1462Y-6318D02*
X1847D01*
X5110Y-3490D02*
Y-2550D01*
X4860Y-3740D02*
X5110Y-3490D01*
X4860Y-3897D02*
Y-3740D01*
X4415Y-4341D02*
X4860Y-3897D01*
X4996Y-2546D02*
X5000Y-2550D01*
X4996Y-2546D02*
Y-2294D01*
X4992Y-2290D02*
X4996Y-2294D01*
X5110Y-2550D02*
Y-2350D01*
X7930Y-5130D02*
X7980Y-5080D01*
X3552Y-7344D02*
X3562Y-7334D01*
X7052Y-7420D02*
X7282Y-7190D01*
X3900Y-7140D02*
X4223Y-7463D01*
X3762Y-4354D02*
X4782Y-5374D01*
X3762Y-4354D02*
Y-3684D01*
X8200Y-4690D02*
Y-4193D01*
X8102Y-4630D02*
Y-4100D01*
X7462Y-3424D02*
X7688Y-3197D01*
X8150D01*
X7385Y-1540D02*
X7700D01*
X350Y-6850D02*
X750Y-7250D01*
X1100D01*
X2100D01*
X2400Y-7550D01*
Y-7950D02*
Y-7550D01*
X2100Y-8250D02*
X2400Y-7950D01*
X2208Y-8500D02*
Y-8358D01*
X2100Y-8250D02*
X2208Y-8358D01*
X1300Y-8250D02*
X2100D01*
X1192Y-8358D02*
X1300Y-8250D01*
X1192Y-8500D02*
Y-8358D01*
X5279Y-1794D02*
Y-1591D01*
X5326Y-1544D01*
X6477D01*
X7066Y-6449D02*
Y-6318D01*
X6839Y-6677D02*
X7066Y-6449D01*
X6074Y-6677D02*
X6839D01*
X5521Y-6124D02*
X6074Y-6677D01*
X5342Y-6124D02*
X5521D01*
X5502Y-3844D02*
X5552Y-3794D01*
X5502Y-4244D02*
Y-3844D01*
Y-4244D02*
X5552Y-4294D01*
X5694D01*
X5766Y-4221D01*
Y-4193D01*
X1476Y-3833D02*
X1552Y-3909D01*
X6402Y-3693D02*
X6866D01*
X6216D02*
X6402D01*
Y-3594D01*
X3298D02*
X3448Y-3444D01*
X3026Y-3594D02*
X3298D01*
X2432Y-4188D02*
X3026Y-3594D01*
X2432Y-5734D02*
Y-4188D01*
X7262Y-5554D02*
X7462Y-5354D01*
Y-3424D01*
X7079Y-3631D02*
X7116Y-3594D01*
X7322D01*
X7074Y-3626D02*
X7079Y-3631D01*
X7066Y-3633D02*
X7074Y-3626D01*
X4152Y-8594D02*
Y-8204D01*
X3902Y-8744D02*
Y-8024D01*
X4302Y-8744D02*
Y-7624D01*
X4052Y-8594D02*
Y-7527D01*
X3802Y-8744D02*
Y-7431D01*
X3552Y-8594D02*
Y-7344D01*
X3802Y-8744D02*
X3812Y-8734D01*
X5931Y-3174D02*
X5952D01*
X5662Y-2444D02*
Y-2194D01*
X5392Y-2444D02*
Y-2194D01*
X4262Y-2950D02*
X4265Y-2954D01*
X4262Y-2950D02*
Y-2834D01*
X5342Y-6124D02*
X6094Y-5372D01*
Y-5293D01*
X6692Y-5824D02*
X6712D01*
X6672Y-5844D02*
X6692Y-5824D01*
X6672Y-6404D02*
Y-5844D01*
X5002Y-3744D02*
X5002D01*
X5012Y-3734D01*
X4892Y-5304D02*
X5012Y-5184D01*
X3337Y-8809D02*
X3402Y-8744D01*
X3337Y-9544D02*
Y-8809D01*
X4547Y-8594D02*
X4552D01*
X4599Y-9544D02*
Y-8646D01*
X7602Y-8594D02*
X7607D01*
X7629Y-8616D01*
Y-9544D02*
Y-8616D01*
X6816Y-4743D02*
Y-4676D01*
Y-4893D02*
Y-4743D01*
X6790D02*
X6816D01*
X6463Y-4415D02*
X6790Y-4743D01*
X6385Y-4415D02*
X6463D01*
X6030Y-4065D02*
X6266D01*
X5794D02*
X6030D01*
X6039Y-4074D01*
Y-4251D02*
Y-4074D01*
Y-4251D02*
X6215Y-4427D01*
X6374Y-4582D02*
X6385Y-4570D01*
X6215Y-4582D02*
X6374D01*
X6120D02*
X6215D01*
X5981Y-4443D02*
X6120Y-4582D01*
X5516Y-4443D02*
X5566Y-4393D01*
X5516Y-4826D02*
Y-4443D01*
X5766Y-4093D02*
X5794Y-4065D01*
X6816D02*
Y-4043D01*
Y-4143D02*
Y-4065D01*
X6436D02*
X6816D01*
X6266Y-4220D02*
X6436D01*
X6659Y-4443D01*
X6716D01*
X7216D02*
X7231Y-4458D01*
Y-4776D02*
Y-4458D01*
X5744Y-4698D02*
X5766Y-4676D01*
X5744Y-4815D02*
Y-4698D01*
X5666Y-4815D02*
X5744D01*
X5516Y-4970D02*
X5666D01*
X5516Y-5093D02*
Y-4970D01*
X6116Y-5143D02*
X6266D01*
X5766D02*
X6116D01*
X6094Y-5165D02*
X6116Y-5143D01*
X6094Y-5293D02*
Y-5165D01*
X5887Y-5241D02*
X5939Y-5293D01*
X5666Y-5241D02*
X5887D01*
X6266Y-4993D02*
X6416Y-4843D01*
X6416D01*
X6516D02*
X6518Y-4845D01*
Y-5143D02*
Y-4845D01*
X6816Y-5143D02*
X6816Y-5143D01*
X6673Y-5143D02*
X6816D01*
X6518Y-5293D02*
Y-5143D01*
Y-5293D02*
X6581Y-5356D01*
X7131D01*
X5779Y-3693D02*
X6216D01*
X6194Y-3670D02*
X6216Y-3693D01*
X6194Y-3670D02*
Y-3606D01*
X6037Y-3608D02*
X6039Y-3606D01*
X5866Y-3608D02*
X6037D01*
X5694Y-3633D02*
X5766Y-3706D01*
X5649Y-3633D02*
X5694D01*
X6866Y-3693D02*
X6931D01*
X7026Y-3788D01*
X7066D01*
X5766Y-3706D02*
X5779Y-3693D01*
X5766Y-4093D02*
Y-3706D01*
X6266Y-5143D02*
X6266Y-5143D01*
X5766Y-4193D02*
X5866Y-4293D01*
Y-4626D02*
Y-4293D01*
X5816Y-4676D02*
X5866Y-4626D01*
X5766Y-4676D02*
X5816D01*
X6866Y-3843D02*
Y-3693D01*
Y-3843D02*
X7066Y-4043D01*
Y-4193D02*
Y-4043D01*
X6766Y-3993D02*
Y-3843D01*
Y-3993D02*
X6816Y-4043D01*
X6916Y-4193D02*
X7066D01*
X6866Y-4093D02*
X6916D01*
X6816Y-4143D02*
X6866Y-4093D01*
X6816Y-4676D02*
Y-4143D01*
X6916Y-4193D02*
X7066Y-4343D01*
Y-4726D02*
Y-4343D01*
X6916Y-4726D02*
X7066D01*
X6866Y-4626D02*
X6916D01*
X6816Y-4676D02*
X6866Y-4626D01*
X6916Y-4893D02*
Y-4726D01*
Y-4993D02*
Y-4893D01*
X6781Y-4928D02*
X6816Y-4893D01*
X6781Y-4993D02*
Y-4928D01*
X6816Y-5143D02*
Y-5028D01*
X6781Y-4993D02*
X6816Y-5028D01*
X6916Y-5143D02*
Y-4993D01*
X6366Y-5143D02*
Y-5026D01*
X6266Y-5143D02*
Y-4993D01*
X5666Y-5241D02*
Y-5143D01*
X5616Y-4643D02*
X5649Y-4676D01*
X5766D01*
X5616Y-4543D02*
X5766D01*
X5616Y-4193D02*
X5766D01*
X5616Y-4093D02*
X5766D01*
X5766Y-4093D01*
X2579Y-8664D02*
X2649Y-8594D01*
X2579Y-9544D02*
Y-8664D01*
X7377Y-8769D02*
X7402Y-8744D01*
X7377Y-9544D02*
Y-8769D01*
X7124Y-8621D02*
X7152Y-8594D01*
X7124Y-9544D02*
Y-8621D01*
X6872Y-8774D02*
X6902Y-8744D01*
X6872Y-9544D02*
Y-8774D01*
X6619Y-8626D02*
X6652Y-8594D01*
X6619Y-9544D02*
Y-8626D01*
X6367Y-8779D02*
X6402Y-8744D01*
X6367Y-9544D02*
Y-8779D01*
X6114Y-8631D02*
X6152Y-8594D01*
X6114Y-9544D02*
Y-8631D01*
X5862Y-8784D02*
X5902Y-8744D01*
X5862Y-9544D02*
Y-8784D01*
X5609Y-8636D02*
X5652Y-8594D01*
X5609Y-9544D02*
Y-8636D01*
X5402Y-8744D02*
X5402D01*
X5357Y-8789D02*
X5402Y-8744D01*
X5357Y-9544D02*
Y-8789D01*
X5104Y-8641D02*
X5152Y-8594D01*
X5104Y-9544D02*
Y-8641D01*
X4902Y-8744D02*
X4902D01*
X4852Y-8794D02*
X4902Y-8744D01*
X4852Y-9544D02*
Y-8794D01*
X7882Y-9544D02*
Y-8814D01*
X7952Y-8744D01*
X2327Y-9544D02*
Y-8869D01*
X2252Y-8794D02*
X2327Y-8869D01*
X4347Y-8799D02*
X4402Y-8744D01*
X4347Y-9544D02*
Y-8799D01*
X9332Y-4214D02*
X9332Y-4214D01*
Y-4104D01*
X9232Y-4214D02*
Y-4004D01*
X4420Y-2954D02*
X4420Y-2954D01*
X4643D01*
X4215Y-4341D02*
X4415D01*
X4268Y-3741D02*
X4420D01*
X4265Y-3739D02*
X4268Y-3741D01*
X4415Y-3746D02*
X4420Y-3741D01*
X4415Y-4341D02*
Y-3746D01*
Y-3636D02*
X4420Y-3641D01*
X4415Y-3636D02*
Y-3491D01*
X4265Y-3639D02*
Y-3491D01*
X4094Y-8651D02*
X4152Y-8594D01*
X4094Y-9544D02*
Y-8651D01*
X3842Y-8804D02*
X3902Y-8744D01*
X3842Y-9544D02*
Y-8804D01*
X3589Y-8656D02*
X3652Y-8594D01*
X3589Y-9544D02*
Y-8656D01*
X3084Y-8661D02*
X3152Y-8594D01*
X3084Y-9544D02*
Y-8661D01*
X2902Y-8744D02*
X2902D01*
X2832Y-8814D02*
X2902Y-8744D01*
X2832Y-9544D02*
Y-8814D01*
D37*
X6916Y-4093D02*
D03*
Y-4193D02*
D03*
X6916Y-4626D02*
D03*
Y-4726D02*
D03*
X5616Y-4643D02*
D03*
Y-4543D02*
D03*
Y-4193D02*
D03*
Y-4093D02*
D03*
X4420Y-3741D02*
D03*
Y-3641D02*
D03*
X4265Y-3639D02*
D03*
Y-3739D02*
D03*
D38*
X6385Y-4415D02*
D03*
Y-4570D02*
D03*
X6215Y-4427D02*
D03*
Y-4582D02*
D03*
X6436Y-4065D02*
D03*
Y-4220D02*
D03*
X6266Y-4065D02*
D03*
Y-4220D02*
D03*
X5666Y-4970D02*
D03*
Y-4815D02*
D03*
X7066Y-3633D02*
D03*
Y-3788D02*
D03*
D41*
X6673Y-5143D02*
D03*
X6518D02*
D03*
X5939Y-5293D02*
D03*
X6094D02*
D03*
X4265Y-2954D02*
D03*
X4420D02*
D03*
X6039Y-3606D02*
D03*
X6194D02*
D03*
D43*
X6766Y-3843D02*
D03*
X6866D02*
D03*
X6816Y-4893D02*
D03*
X6916D02*
D03*
X6516Y-4843D02*
D03*
X6416D02*
D03*
X5666Y-5143D02*
D03*
X5766D02*
D03*
X9332Y-4214D02*
D03*
X9232D02*
D03*
X6366Y-5143D02*
D03*
X6266D02*
D03*
X6916D02*
D03*
X6816D02*
D03*
D49*
X7377Y-9544D02*
D03*
X6367D02*
D03*
X5357D02*
D03*
X7629D02*
D03*
X6872D02*
D03*
X6619D02*
D03*
X6114D02*
D03*
X5862D02*
D03*
X5104D02*
D03*
X4852D02*
D03*
X4599D02*
D03*
X4347D02*
D03*
X4094D02*
D03*
X3589D02*
D03*
X3337D02*
D03*
X2832D02*
D03*
X2579D02*
D03*
X7124D02*
D03*
X5609D02*
D03*
X3842D02*
D03*
X3084D02*
D03*
D50*
X7882D02*
D03*
X2327D02*
D03*
D52*
X8920Y-900D02*
D03*
X9880D02*
D03*
X7220D02*
D03*
X8180D02*
D03*
X5520Y-900D02*
D03*
X6480D02*
D03*
X3820Y-900D02*
D03*
X4780D02*
D03*
X2120Y-900D02*
D03*
X3080D02*
D03*
X420D02*
D03*
X1380D02*
D03*
X1380Y-2750D02*
D03*
X420D02*
D03*
X9880D02*
D03*
X8920D02*
D03*
D53*
X9150Y-150D02*
D03*
X9650D02*
D03*
X9400D02*
D03*
X7450D02*
D03*
X7950D02*
D03*
X7700D02*
D03*
X5750Y-150D02*
D03*
X6250D02*
D03*
X6000D02*
D03*
X4050Y-150D02*
D03*
X4550D02*
D03*
X4300D02*
D03*
X2350Y-150D02*
D03*
X2850D02*
D03*
X2600D02*
D03*
X650D02*
D03*
X1150D02*
D03*
X900D02*
D03*
X900Y-2000D02*
D03*
X1150D02*
D03*
X650D02*
D03*
X9400D02*
D03*
X9650D02*
D03*
X9150D02*
D03*
D54*
X5279Y-1794D02*
D03*
X5787D02*
D03*
X6041D02*
D03*
X6295D02*
D03*
X5533D02*
D03*
X2432Y-3197D02*
D03*
X2940D02*
D03*
X3194D02*
D03*
X3448D02*
D03*
X2686D02*
D03*
X1222Y-3833D02*
D03*
X460D02*
D03*
X714D02*
D03*
X968D02*
D03*
X1476D02*
D03*
D55*
X7438Y-6109D02*
D03*
Y-6589D02*
D03*
X5267Y-6579D02*
D03*
X5517Y-6584D02*
D03*
D56*
X2208Y-7738D02*
D03*
X1954D02*
D03*
X1700D02*
D03*
X1446D02*
D03*
X2208Y-8500D02*
D03*
X1954D02*
D03*
X1700D02*
D03*
X1446D02*
D03*
X684D02*
D03*
X938D02*
D03*
X1192D02*
D03*
X430Y-7738D02*
D03*
X684D02*
D03*
X938D02*
D03*
X1192D02*
D03*
D57*
X430Y-8500D02*
D03*
D58*
X7882Y-1050D02*
D03*
X9467Y-750D02*
D03*
Y-900D02*
D03*
Y-1050D02*
D03*
X1750Y-4459D02*
D03*
X2000D02*
D03*
X3589Y-3450D02*
D03*
X4792Y-3150D02*
D03*
X5200Y-3050D02*
D03*
X1100Y-4150D02*
D03*
X2000Y-5026D02*
D03*
X3750Y-3450D02*
D03*
X4777Y-3471D02*
D03*
X10050Y-4004D02*
D03*
X9101Y-6500D02*
D03*
X6872Y-7233D02*
D03*
X5787Y-7232D02*
D03*
X3820Y-6550D02*
D03*
X684Y-4722D02*
D03*
X2123Y-5330D02*
D03*
X2700Y-5750D02*
D03*
X3632D02*
D03*
X5850Y-6300D02*
D03*
X9097Y-6100D02*
D03*
X8550Y-450D02*
D03*
X9100Y-5943D02*
D03*
X8110Y-617D02*
D03*
X9100Y-5793D02*
D03*
X9101Y-5628D02*
D03*
X7973Y-4004D02*
D03*
X8180Y-4876D02*
D03*
X8900Y-3300D02*
D03*
X8600Y-4893D02*
D03*
X2802Y-1100D02*
D03*
X1462Y-1540D02*
D03*
X1300Y-4800D02*
D03*
X9700Y-4626D02*
D03*
D59*
X7377Y-5680D02*
D03*
X7438Y-5580D02*
D03*
X6831Y-5900D02*
D03*
X5566Y-2874D02*
D03*
X7066Y-2550D02*
D03*
X3652Y-7824D02*
D03*
X5130Y-5580D02*
D03*
X5080Y-5680D02*
D03*
X6281Y-2584D02*
D03*
X1462Y-6318D02*
D03*
X4992Y-2290D02*
D03*
X5110Y-2350D02*
D03*
Y-2550D02*
D03*
X5000D02*
D03*
X3562Y-7334D02*
D03*
X7980Y-5080D02*
D03*
X8110Y-5150D02*
D03*
X8190Y-5270D02*
D03*
Y-5430D02*
D03*
X8110Y-5514D02*
D03*
X4782Y-5374D02*
D03*
X8200Y-4690D02*
D03*
X8102Y-4630D02*
D03*
X8200Y-4193D02*
D03*
X8102Y-4100D02*
D03*
X8150Y-3197D02*
D03*
X7700Y-1540D02*
D03*
X1100Y-7250D02*
D03*
X5552Y-3794D02*
D03*
X6402Y-3594D02*
D03*
X7322D02*
D03*
X3762Y-3684D02*
D03*
X3802Y-7431D02*
D03*
X4152Y-8204D02*
D03*
X4302Y-7624D02*
D03*
X4052Y-7527D02*
D03*
X5952Y-3174D02*
D03*
X5662Y-2444D02*
D03*
Y-2194D02*
D03*
X5392Y-2444D02*
D03*
Y-2194D02*
D03*
X4262Y-2834D02*
D03*
X5342Y-6124D02*
D03*
X7066Y-6318D02*
D03*
X6712Y-5824D02*
D03*
X6672Y-6404D02*
D03*
X5002Y-3744D02*
D03*
X4892Y-5304D02*
D03*
X3402Y-8744D02*
D03*
X3302D02*
D03*
X6302Y-2944D02*
D03*
X6322Y-2774D02*
D03*
X6381Y-2504D02*
D03*
X6482Y-2424D02*
D03*
X6581Y-2344D02*
D03*
X9152Y-4764D02*
D03*
X9052Y-4664D02*
D03*
X8962Y-4570D02*
D03*
X8862Y-4484D02*
D03*
X8782Y-4391D02*
D03*
X3902Y-8024D02*
D03*
X4552Y-8594D02*
D03*
X4652D02*
D03*
X7702Y-8599D02*
D03*
X7602Y-8594D02*
D03*
X5981Y-4443D02*
D03*
X5566Y-4393D02*
D03*
X5516Y-4826D02*
D03*
X6716Y-4443D02*
D03*
X7216D02*
D03*
X7231Y-4776D02*
D03*
X5516Y-5093D02*
D03*
X7131Y-5356D02*
D03*
X5866Y-3608D02*
D03*
X5649Y-3633D02*
D03*
X6866Y-3693D02*
D03*
X7066Y-4193D02*
D03*
Y-4726D02*
D03*
X6781Y-4993D02*
D03*
X6916Y-4993D02*
D03*
X6366Y-5026D02*
D03*
X6266Y-4993D02*
D03*
X5666Y-5241D02*
D03*
X5766Y-4676D02*
D03*
Y-4543D02*
D03*
Y-4193D02*
D03*
Y-4093D02*
D03*
X2649Y-8594D02*
D03*
X2552D02*
D03*
X7402Y-8744D02*
D03*
X7302D02*
D03*
X7152Y-8594D02*
D03*
X7052D02*
D03*
X6902Y-8744D02*
D03*
X6802D02*
D03*
X6652Y-8594D02*
D03*
X6552D02*
D03*
X6402Y-8744D02*
D03*
X6302D02*
D03*
X6152Y-8594D02*
D03*
X6052D02*
D03*
X5902Y-8744D02*
D03*
X5802D02*
D03*
X5652Y-8594D02*
D03*
X5552D02*
D03*
X5402Y-8744D02*
D03*
X5302D02*
D03*
X5152Y-8594D02*
D03*
X5052D02*
D03*
X4902Y-8744D02*
D03*
X4802D02*
D03*
X7952D02*
D03*
X2252Y-8794D02*
D03*
X4302Y-8744D02*
D03*
X2802D02*
D03*
X3052Y-8594D02*
D03*
X3552D02*
D03*
X3802Y-8744D02*
D03*
X4052Y-8594D02*
D03*
X4402Y-8744D02*
D03*
X9332Y-4104D02*
D03*
X9232Y-4004D02*
D03*
X4643Y-2954D02*
D03*
X4215Y-4341D02*
D03*
X4415D02*
D03*
Y-3491D02*
D03*
X4265D02*
D03*
X4152Y-8594D02*
D03*
X3902Y-8744D02*
D03*
X3652Y-8594D02*
D03*
X3152D02*
D03*
X2902Y-8744D02*
D03*
M02*
