G04*
G04 #@! TF.GenerationSoftware,Altium Limited,Altium Designer,19.0.15 (446)*
G04*
G04 Layer_Color=8388736*
%FSLAX42Y42*%
%MOMM*%
G71*
G01*
G75*
%ADD13R,60.02X8.00*%
%ADD14R,0.80X0.80*%
%ADD15R,1.10X1.05*%
%ADD16R,1.55X0.52*%
%ADD17R,0.52X1.55*%
%ADD18R,1.05X1.10*%
%ADD19R,0.80X1.00*%
%ADD20R,0.80X0.80*%
%ADD21R,1.80X0.50*%
%ADD22O,1.80X0.50*%
%ADD23R,1.20X2.20*%
G04:AMPARAMS|DCode=24|XSize=0.7mm|YSize=0.65mm|CornerRadius=0.21mm|HoleSize=0mm|Usage=FLASHONLY|Rotation=0.000|XOffset=0mm|YOffset=0mm|HoleType=Round|Shape=RoundedRectangle|*
%AMROUNDEDRECTD24*
21,1,0.70,0.23,0,0,0.0*
21,1,0.28,0.65,0,0,0.0*
1,1,0.43,0.14,-0.11*
1,1,0.43,-0.14,-0.11*
1,1,0.43,-0.14,0.11*
1,1,0.43,0.14,0.11*
%
%ADD24ROUNDEDRECTD24*%
%ADD25R,0.70X0.65*%
%ADD26O,1.65X7.20*%
%ADD27R,1.65X7.20*%
%ADD28R,1.30X2.00*%
%ADD29O,3.20X2.20*%
%ADD30C,2.20*%
%ADD31O,2.20X2.70*%
%ADD32C,1.73*%
%ADD33O,1.40X2.70*%
%ADD34R,1.40X2.70*%
%ADD35C,0.80*%
%ADD36C,0.90*%
D13*
X5101Y-9550D02*
D03*
D14*
X5267Y-6284D02*
D03*
Y-6384D02*
D03*
X5517Y-6284D02*
D03*
Y-6384D02*
D03*
X7700Y-5330D02*
D03*
Y-5430D02*
D03*
X1700Y-6997D02*
D03*
Y-6897D02*
D03*
X1300Y-6697D02*
D03*
Y-6597D02*
D03*
D15*
X6800Y-6264D02*
D03*
Y-6109D02*
D03*
Y-6434D02*
D03*
Y-6589D02*
D03*
X6037Y-2194D02*
D03*
Y-2349D02*
D03*
X5787Y-2194D02*
D03*
Y-2349D02*
D03*
X5537Y-2194D02*
D03*
Y-2349D02*
D03*
X3902Y-2636D02*
D03*
Y-2481D02*
D03*
X3572Y-2173D02*
D03*
Y-2018D02*
D03*
X3382D02*
D03*
Y-2173D02*
D03*
X3174D02*
D03*
Y-2018D02*
D03*
X2984D02*
D03*
Y-2173D02*
D03*
X2765Y-2178D02*
D03*
Y-2023D02*
D03*
X2575D02*
D03*
Y-2178D02*
D03*
X2372Y-2179D02*
D03*
Y-2024D02*
D03*
X2182D02*
D03*
Y-2179D02*
D03*
X1472Y-4304D02*
D03*
Y-4459D02*
D03*
Y-4624D02*
D03*
Y-4779D02*
D03*
X714Y-4409D02*
D03*
Y-4254D02*
D03*
X1900Y-6869D02*
D03*
Y-7024D02*
D03*
X1100Y-6569D02*
D03*
Y-6724D02*
D03*
X5522Y-6134D02*
D03*
Y-5979D02*
D03*
X5252Y-5966D02*
D03*
Y-5811D02*
D03*
X9742Y-4342D02*
D03*
Y-4497D02*
D03*
X9942D02*
D03*
Y-4342D02*
D03*
X10014Y-3636D02*
D03*
Y-3791D02*
D03*
X9842D02*
D03*
Y-3636D02*
D03*
D16*
X5343Y-3576D02*
D03*
Y-3626D02*
D03*
Y-3676D02*
D03*
Y-3726D02*
D03*
Y-3776D02*
D03*
Y-3826D02*
D03*
Y-3876D02*
D03*
Y-3926D02*
D03*
Y-3976D02*
D03*
Y-4026D02*
D03*
Y-4076D02*
D03*
Y-4126D02*
D03*
Y-4176D02*
D03*
Y-4226D02*
D03*
Y-4276D02*
D03*
Y-4326D02*
D03*
Y-4376D02*
D03*
Y-4426D02*
D03*
Y-4476D02*
D03*
Y-4526D02*
D03*
Y-4576D02*
D03*
Y-4626D02*
D03*
Y-4676D02*
D03*
Y-4726D02*
D03*
Y-4776D02*
D03*
Y-4826D02*
D03*
Y-4876D02*
D03*
Y-4926D02*
D03*
Y-4976D02*
D03*
Y-5026D02*
D03*
Y-5076D02*
D03*
Y-5126D02*
D03*
Y-5176D02*
D03*
Y-5226D02*
D03*
Y-5276D02*
D03*
Y-5326D02*
D03*
X7469D02*
D03*
Y-5276D02*
D03*
Y-5226D02*
D03*
Y-5176D02*
D03*
Y-5126D02*
D03*
Y-5076D02*
D03*
Y-5026D02*
D03*
Y-4976D02*
D03*
Y-4926D02*
D03*
Y-4876D02*
D03*
Y-4826D02*
D03*
Y-4776D02*
D03*
Y-4726D02*
D03*
Y-4676D02*
D03*
Y-4626D02*
D03*
Y-4576D02*
D03*
Y-4526D02*
D03*
Y-4476D02*
D03*
Y-4426D02*
D03*
Y-4376D02*
D03*
Y-4326D02*
D03*
Y-4276D02*
D03*
Y-4226D02*
D03*
Y-4176D02*
D03*
Y-4126D02*
D03*
Y-4076D02*
D03*
Y-4026D02*
D03*
Y-3976D02*
D03*
Y-3926D02*
D03*
Y-3876D02*
D03*
Y-3826D02*
D03*
Y-3776D02*
D03*
Y-3726D02*
D03*
Y-3676D02*
D03*
Y-3626D02*
D03*
Y-3576D02*
D03*
D17*
X5531Y-5514D02*
D03*
X5581D02*
D03*
X5631D02*
D03*
X5681D02*
D03*
X5731D02*
D03*
X5781D02*
D03*
X5831D02*
D03*
X5881D02*
D03*
X5931D02*
D03*
X5981D02*
D03*
X6031D02*
D03*
X6081D02*
D03*
X6131D02*
D03*
X6181D02*
D03*
X6231D02*
D03*
X6281D02*
D03*
X6331D02*
D03*
X6381D02*
D03*
X6431D02*
D03*
X6481D02*
D03*
X6531D02*
D03*
X6581D02*
D03*
X6631D02*
D03*
X6681D02*
D03*
X6731D02*
D03*
X6781D02*
D03*
X6831D02*
D03*
X6881D02*
D03*
X6931D02*
D03*
X6981D02*
D03*
X7031D02*
D03*
X7081D02*
D03*
X7131D02*
D03*
X7181D02*
D03*
X7231D02*
D03*
X7281D02*
D03*
Y-3388D02*
D03*
X7231D02*
D03*
X7181D02*
D03*
X7131D02*
D03*
X7081D02*
D03*
X7031D02*
D03*
X6981D02*
D03*
X6931D02*
D03*
X6881D02*
D03*
X6831D02*
D03*
X6781D02*
D03*
X6731D02*
D03*
X6681D02*
D03*
X6631D02*
D03*
X6581D02*
D03*
X6531D02*
D03*
X6481D02*
D03*
X6431D02*
D03*
X6381D02*
D03*
X6331D02*
D03*
X6281D02*
D03*
X6231D02*
D03*
X6181D02*
D03*
X6131D02*
D03*
X6081D02*
D03*
X6031D02*
D03*
X5981D02*
D03*
X5931D02*
D03*
X5881D02*
D03*
X5831D02*
D03*
X5781D02*
D03*
X5731D02*
D03*
X5681D02*
D03*
X5631D02*
D03*
X5581D02*
D03*
X5531D02*
D03*
D18*
X5361Y-3193D02*
D03*
X5516D02*
D03*
X3632Y-2724D02*
D03*
X3477D02*
D03*
X3237D02*
D03*
X3082D02*
D03*
X2825D02*
D03*
X2670D02*
D03*
X2432D02*
D03*
X2277D02*
D03*
X1304Y-4304D02*
D03*
X1149D02*
D03*
Y-4474D02*
D03*
X1304D02*
D03*
X2277Y-7047D02*
D03*
X2123D02*
D03*
Y-6847D02*
D03*
X2277D02*
D03*
X722Y-6747D02*
D03*
X877D02*
D03*
Y-6547D02*
D03*
X722D02*
D03*
D19*
X3572Y-2319D02*
D03*
X3382D02*
D03*
X3477Y-2569D02*
D03*
X3174Y-2319D02*
D03*
X2984D02*
D03*
X3079Y-2569D02*
D03*
X2765Y-2324D02*
D03*
X2575D02*
D03*
X2670Y-2574D02*
D03*
X2372Y-2324D02*
D03*
X2182D02*
D03*
X2277Y-2574D02*
D03*
X9836Y-3947D02*
D03*
X9931Y-4197D02*
D03*
X9741D02*
D03*
D20*
X1100Y-2400D02*
D03*
X1000D02*
D03*
X468Y-4409D02*
D03*
X568D02*
D03*
X7750Y-600D02*
D03*
X7850D02*
D03*
X950D02*
D03*
X1050D02*
D03*
X9500D02*
D03*
X9600D02*
D03*
X2667D02*
D03*
X2767D02*
D03*
X9500Y-2400D02*
D03*
X9600D02*
D03*
X4365Y-600D02*
D03*
X4465D02*
D03*
X6100D02*
D03*
X6200D02*
D03*
X7766Y-3493D02*
D03*
X7666D02*
D03*
X5416Y-3038D02*
D03*
X5516D02*
D03*
X7088Y-6109D02*
D03*
X6988D02*
D03*
X7088Y-6589D02*
D03*
X6988D02*
D03*
D21*
X4055Y-3631D02*
D03*
D22*
Y-3696D02*
D03*
Y-3761D02*
D03*
Y-3826D02*
D03*
Y-3891D02*
D03*
Y-3956D02*
D03*
Y-4021D02*
D03*
Y-4086D02*
D03*
Y-4151D02*
D03*
Y-4216D02*
D03*
Y-4281D02*
D03*
Y-4346D02*
D03*
X4615Y-3631D02*
D03*
Y-3696D02*
D03*
Y-3761D02*
D03*
Y-3826D02*
D03*
Y-3891D02*
D03*
Y-3956D02*
D03*
Y-4021D02*
D03*
Y-4086D02*
D03*
Y-4151D02*
D03*
Y-4216D02*
D03*
Y-4281D02*
D03*
Y-4346D02*
D03*
D23*
X1600Y-6647D02*
D03*
D24*
X1730Y-6737D02*
D03*
Y-6642D02*
D03*
Y-6547D02*
D03*
X1470Y-6737D02*
D03*
Y-6642D02*
D03*
D25*
Y-6547D02*
D03*
D26*
X2832Y-9544D02*
D03*
X3842D02*
D03*
X4852D02*
D03*
X2579D02*
D03*
X3589D02*
D03*
X3337D02*
D03*
X4347D02*
D03*
X4094D02*
D03*
X5357D02*
D03*
X5104D02*
D03*
X6114D02*
D03*
X5862D02*
D03*
X5609D02*
D03*
X6872D02*
D03*
X6619D02*
D03*
X7629D02*
D03*
X7377D02*
D03*
X4599D02*
D03*
X3084D02*
D03*
X7124D02*
D03*
X6367D02*
D03*
D27*
X2327D02*
D03*
X7882D02*
D03*
D28*
X9097Y-3594D02*
D03*
X9467D02*
D03*
X9097Y-4214D02*
D03*
X9467D02*
D03*
X4528Y-3259D02*
D03*
X4158D02*
D03*
X4528Y-2639D02*
D03*
X4158D02*
D03*
D29*
X8920Y-900D02*
D03*
X9880D02*
D03*
X7220D02*
D03*
X8180D02*
D03*
X5520Y-900D02*
D03*
X6480D02*
D03*
X3820Y-900D02*
D03*
X4780D02*
D03*
X2120Y-900D02*
D03*
X3080D02*
D03*
X420D02*
D03*
X1380D02*
D03*
X1380Y-2750D02*
D03*
X420D02*
D03*
X9880D02*
D03*
X8920D02*
D03*
D30*
X9150Y-150D02*
D03*
X9650D02*
D03*
X9400D02*
D03*
X7450D02*
D03*
X7950D02*
D03*
X7700D02*
D03*
X5750Y-150D02*
D03*
X6250D02*
D03*
X6000D02*
D03*
X4050Y-150D02*
D03*
X4550D02*
D03*
X4300D02*
D03*
X2350Y-150D02*
D03*
X2850D02*
D03*
X2600D02*
D03*
X650D02*
D03*
X1150D02*
D03*
X900D02*
D03*
X900Y-2000D02*
D03*
X1150D02*
D03*
X650D02*
D03*
X9400D02*
D03*
X9650D02*
D03*
X9150D02*
D03*
D31*
X5279Y-1794D02*
D03*
X5787D02*
D03*
X6041D02*
D03*
X6295D02*
D03*
X5533D02*
D03*
X2432Y-3197D02*
D03*
X2940D02*
D03*
X3194D02*
D03*
X3448D02*
D03*
X2686D02*
D03*
X1222Y-3833D02*
D03*
X460D02*
D03*
X714D02*
D03*
X968D02*
D03*
X1476D02*
D03*
D32*
X7438Y-6109D02*
D03*
Y-6589D02*
D03*
X5267Y-6579D02*
D03*
X5517Y-6584D02*
D03*
D33*
X2208Y-7738D02*
D03*
X1954D02*
D03*
X1700D02*
D03*
X1446D02*
D03*
X2208Y-8500D02*
D03*
X1954D02*
D03*
X1700D02*
D03*
X1446D02*
D03*
X684D02*
D03*
X938D02*
D03*
X1192D02*
D03*
X430Y-7738D02*
D03*
X684D02*
D03*
X938D02*
D03*
X1192D02*
D03*
D34*
X430Y-8500D02*
D03*
D35*
X7882Y-1050D02*
D03*
X9467Y-750D02*
D03*
Y-900D02*
D03*
Y-1050D02*
D03*
X1750Y-4459D02*
D03*
X2000D02*
D03*
X3589Y-3450D02*
D03*
X4792Y-3150D02*
D03*
X5200Y-3050D02*
D03*
X1100Y-4150D02*
D03*
X2000Y-5026D02*
D03*
X3750Y-3450D02*
D03*
X4777Y-3471D02*
D03*
X10050Y-4004D02*
D03*
X9101Y-6500D02*
D03*
X6872Y-7233D02*
D03*
X5787Y-7232D02*
D03*
X3820Y-6550D02*
D03*
X684Y-4722D02*
D03*
X2123Y-5330D02*
D03*
X2700Y-5750D02*
D03*
X3632D02*
D03*
X5850Y-6300D02*
D03*
X9097Y-6100D02*
D03*
X8550Y-450D02*
D03*
X9100Y-5943D02*
D03*
X8110Y-617D02*
D03*
X9100Y-5793D02*
D03*
X9101Y-5628D02*
D03*
X7973Y-4004D02*
D03*
X8180Y-4876D02*
D03*
X8900Y-3300D02*
D03*
X8600Y-4893D02*
D03*
X2802Y-1100D02*
D03*
X1462Y-1540D02*
D03*
X1300Y-4800D02*
D03*
X9700Y-4626D02*
D03*
D36*
X7377Y-5680D02*
D03*
X7438Y-5580D02*
D03*
X6831Y-5900D02*
D03*
X5566Y-2874D02*
D03*
X7066Y-2550D02*
D03*
X3652Y-7824D02*
D03*
X5130Y-5580D02*
D03*
X5080Y-5680D02*
D03*
X6281Y-2584D02*
D03*
X1462Y-6318D02*
D03*
X4992Y-2290D02*
D03*
X5110Y-2350D02*
D03*
Y-2550D02*
D03*
X5000D02*
D03*
X3562Y-7334D02*
D03*
X7980Y-5080D02*
D03*
X8110Y-5150D02*
D03*
X8190Y-5270D02*
D03*
Y-5430D02*
D03*
X8110Y-5514D02*
D03*
X4782Y-5374D02*
D03*
X8200Y-4690D02*
D03*
X8102Y-4630D02*
D03*
X8200Y-4193D02*
D03*
X8102Y-4100D02*
D03*
X8150Y-3197D02*
D03*
X7700Y-1540D02*
D03*
X1100Y-7250D02*
D03*
X5552Y-3794D02*
D03*
X6402Y-3594D02*
D03*
X7322D02*
D03*
X3762Y-3684D02*
D03*
X3802Y-7431D02*
D03*
X4152Y-8204D02*
D03*
X4302Y-7624D02*
D03*
X4052Y-7527D02*
D03*
X5952Y-3174D02*
D03*
X5662Y-2444D02*
D03*
Y-2194D02*
D03*
X5392Y-2444D02*
D03*
Y-2194D02*
D03*
X4262Y-2834D02*
D03*
X5342Y-6124D02*
D03*
X7066Y-6318D02*
D03*
X6712Y-5824D02*
D03*
X6672Y-6404D02*
D03*
X5002Y-3744D02*
D03*
X4892Y-5304D02*
D03*
X3402Y-8744D02*
D03*
X3302D02*
D03*
X6302Y-2944D02*
D03*
X6322Y-2774D02*
D03*
X6381Y-2504D02*
D03*
X6482Y-2424D02*
D03*
X6581Y-2344D02*
D03*
X9152Y-4764D02*
D03*
X9052Y-4664D02*
D03*
X8962Y-4570D02*
D03*
X8862Y-4484D02*
D03*
X8782Y-4391D02*
D03*
X3902Y-8024D02*
D03*
X4552Y-8594D02*
D03*
X4652D02*
D03*
X7702Y-8599D02*
D03*
X7602Y-8594D02*
D03*
X5981Y-4443D02*
D03*
X5566Y-4393D02*
D03*
X5516Y-4826D02*
D03*
X6716Y-4443D02*
D03*
X7216D02*
D03*
X7231Y-4776D02*
D03*
X5516Y-5093D02*
D03*
X7131Y-5356D02*
D03*
X5866Y-3608D02*
D03*
X5649Y-3633D02*
D03*
X6866Y-3693D02*
D03*
X7066Y-4193D02*
D03*
Y-4726D02*
D03*
X6781Y-4993D02*
D03*
X6916Y-4993D02*
D03*
X6366Y-5026D02*
D03*
X6266Y-4993D02*
D03*
X5666Y-5241D02*
D03*
X5766Y-4676D02*
D03*
Y-4543D02*
D03*
Y-4193D02*
D03*
Y-4093D02*
D03*
X2649Y-8594D02*
D03*
X2552D02*
D03*
X7402Y-8744D02*
D03*
X7302D02*
D03*
X7152Y-8594D02*
D03*
X7052D02*
D03*
X6902Y-8744D02*
D03*
X6802D02*
D03*
X6652Y-8594D02*
D03*
X6552D02*
D03*
X6402Y-8744D02*
D03*
X6302D02*
D03*
X6152Y-8594D02*
D03*
X6052D02*
D03*
X5902Y-8744D02*
D03*
X5802D02*
D03*
X5652Y-8594D02*
D03*
X5552D02*
D03*
X5402Y-8744D02*
D03*
X5302D02*
D03*
X5152Y-8594D02*
D03*
X5052D02*
D03*
X4902Y-8744D02*
D03*
X4802D02*
D03*
X7952D02*
D03*
X2252Y-8794D02*
D03*
X4302Y-8744D02*
D03*
X2802D02*
D03*
X3052Y-8594D02*
D03*
X3552D02*
D03*
X3802Y-8744D02*
D03*
X4052Y-8594D02*
D03*
X4402Y-8744D02*
D03*
X9332Y-4104D02*
D03*
X9232Y-4004D02*
D03*
X4643Y-2954D02*
D03*
X4215Y-4341D02*
D03*
X4415D02*
D03*
Y-3491D02*
D03*
X4265D02*
D03*
X4152Y-8594D02*
D03*
X3902Y-8744D02*
D03*
X3652Y-8594D02*
D03*
X3152D02*
D03*
X2902Y-8744D02*
D03*
M02*
