G04*
G04 #@! TF.GenerationSoftware,Altium Limited,Altium Designer,19.0.15 (446)*
G04*
G04 Layer_Color=32896*
%FSLAX42Y42*%
%MOMM*%
G71*
G01*
G75*
%ADD11C,0.25*%
%ADD12C,0.10*%
D11*
X8800Y-750D02*
Y-50D01*
X9000D01*
X9800D02*
X10000D01*
Y-750D02*
Y-50D01*
Y-1350D02*
Y-1050D01*
X8800Y-1350D02*
X10000D01*
X8800D02*
Y-1050D01*
X7100Y-750D02*
Y-50D01*
X7300D01*
X8100D02*
X8300D01*
Y-750D02*
Y-50D01*
Y-1350D02*
Y-1050D01*
X7100Y-1350D02*
X8300D01*
X7100D02*
Y-1050D01*
X5400Y-750D02*
Y-50D01*
X5600D01*
X6400D02*
X6600D01*
Y-750D02*
Y-50D01*
Y-1350D02*
Y-1050D01*
X5400Y-1350D02*
X6600D01*
X5400D02*
Y-1050D01*
X3700Y-750D02*
Y-50D01*
X3900D01*
X4700D02*
X4900D01*
Y-750D02*
Y-50D01*
Y-1350D02*
Y-1050D01*
X3700Y-1350D02*
X4900D01*
X3700D02*
Y-1050D01*
X2000Y-750D02*
Y-50D01*
X2200D01*
X3000D02*
X3200D01*
Y-750D02*
Y-50D01*
Y-1350D02*
Y-1050D01*
X2000Y-1350D02*
X3200D01*
X2000D02*
Y-1050D01*
X300Y-750D02*
Y-50D01*
X500D01*
X1300D02*
X1500D01*
Y-750D02*
Y-50D01*
Y-1350D02*
Y-1050D01*
X300Y-1350D02*
X1500D01*
X300D02*
Y-1050D01*
X300Y-3200D02*
Y-2900D01*
Y-3200D02*
X1500D01*
Y-2900D01*
Y-2600D02*
Y-1900D01*
X1300D02*
X1500D01*
X300D02*
X500D01*
X300Y-2600D02*
Y-1900D01*
X8800Y-3200D02*
Y-2900D01*
Y-3200D02*
X10000D01*
Y-2900D01*
Y-2600D02*
Y-1900D01*
X9800D02*
X10000D01*
X8800D02*
X9000D01*
X8800Y-2600D02*
Y-1900D01*
X8750Y-300D02*
Y-220D01*
X8710D01*
X8697Y-233D01*
Y-260D01*
X8710Y-273D01*
X8750D01*
X8617Y-220D02*
X8643Y-233D01*
X8670Y-260D01*
Y-287D01*
X8657Y-300D01*
X8630D01*
X8617Y-287D01*
Y-273D01*
X8630Y-260D01*
X8670D01*
X8500Y-150D02*
Y-70D01*
X8460D01*
X8447Y-83D01*
Y-110D01*
X8460Y-123D01*
X8500D01*
X8367Y-70D02*
X8420D01*
Y-110D01*
X8393Y-97D01*
X8380D01*
X8367Y-110D01*
Y-137D01*
X8380Y-150D01*
X8407D01*
X8420Y-137D01*
X6802Y-150D02*
Y-70D01*
X6762D01*
X6748Y-83D01*
Y-110D01*
X6762Y-123D01*
X6802D01*
X6682Y-150D02*
Y-70D01*
X6722Y-110D01*
X6668D01*
X5110Y-150D02*
Y-70D01*
X5070D01*
X5057Y-83D01*
Y-110D01*
X5070Y-123D01*
X5110D01*
X5030Y-83D02*
X5017Y-70D01*
X4990D01*
X4977Y-83D01*
Y-97D01*
X4990Y-110D01*
X5003D01*
X4990D01*
X4977Y-123D01*
Y-137D01*
X4990Y-150D01*
X5017D01*
X5030Y-137D01*
X3400Y-150D02*
Y-70D01*
X3360D01*
X3347Y-83D01*
Y-110D01*
X3360Y-123D01*
X3400D01*
X3267Y-150D02*
X3320D01*
X3267Y-97D01*
Y-83D01*
X3280Y-70D01*
X3307D01*
X3320Y-83D01*
X1700Y-150D02*
Y-70D01*
X1660D01*
X1647Y-83D01*
Y-110D01*
X1660Y-123D01*
X1700D01*
X1620Y-150D02*
X1593D01*
X1607D01*
Y-70D01*
X1620Y-83D01*
X1514Y-1812D02*
Y-1732D01*
X1474D01*
X1461Y-1745D01*
Y-1772D01*
X1474Y-1785D01*
X1514D01*
X1434Y-1745D02*
X1421Y-1732D01*
X1394D01*
X1381Y-1745D01*
Y-1759D01*
X1394Y-1772D01*
X1381Y-1785D01*
Y-1799D01*
X1394Y-1812D01*
X1421D01*
X1434Y-1799D01*
Y-1785D01*
X1421Y-1772D01*
X1434Y-1759D01*
Y-1745D01*
X1421Y-1772D02*
X1394D01*
X10015Y-1812D02*
Y-1732D01*
X9975D01*
X9962Y-1745D01*
Y-1772D01*
X9975Y-1785D01*
X10015D01*
X9935Y-1732D02*
X9882D01*
Y-1745D01*
X9935Y-1799D01*
Y-1812D01*
D12*
X6728Y-3683D02*
X6741Y-3670D01*
X6768D01*
X6781Y-3683D01*
Y-3737D01*
X6768Y-3750D01*
X6741D01*
X6728Y-3737D01*
X6648Y-3750D02*
X6701D01*
X6648Y-3697D01*
Y-3683D01*
X6661Y-3670D01*
X6688D01*
X6701Y-3683D01*
X6621D02*
X6608Y-3670D01*
X6581D01*
X6568Y-3683D01*
Y-3697D01*
X6581Y-3710D01*
X6594D01*
X6581D01*
X6568Y-3723D01*
Y-3737D01*
X6581Y-3750D01*
X6608D01*
X6621Y-3737D01*
X6903Y-4017D02*
X6890Y-4030D01*
X6863D01*
X6850Y-4017D01*
Y-3963D01*
X6863Y-3950D01*
X6890D01*
X6903Y-3963D01*
X6983Y-3950D02*
X6930D01*
X6983Y-4003D01*
Y-4017D01*
X6970Y-4030D01*
X6943D01*
X6930Y-4017D01*
X7010Y-3950D02*
X7037D01*
X7023D01*
Y-4030D01*
X7010Y-4017D01*
X6967Y-4490D02*
X6980Y-4503D01*
Y-4530D01*
X6967Y-4543D01*
X6913D01*
X6900Y-4530D01*
Y-4503D01*
X6913Y-4490D01*
X6900Y-4410D02*
Y-4463D01*
X6953Y-4410D01*
X6967D01*
X6980Y-4423D01*
Y-4450D01*
X6967Y-4463D01*
Y-4383D02*
X6980Y-4370D01*
Y-4343D01*
X6967Y-4330D01*
X6913D01*
X6900Y-4343D01*
Y-4370D01*
X6913Y-4383D01*
X6967D01*
X7163Y-4883D02*
X7176Y-4870D01*
X7203D01*
X7216Y-4883D01*
Y-4937D01*
X7203Y-4950D01*
X7176D01*
X7163Y-4937D01*
X7136Y-4950D02*
X7109D01*
X7123D01*
Y-4870D01*
X7136Y-4883D01*
X7069Y-4937D02*
X7056Y-4950D01*
X7029D01*
X7016Y-4937D01*
Y-4883D01*
X7029Y-4870D01*
X7056D01*
X7069Y-4883D01*
Y-4897D01*
X7056Y-4910D01*
X7016D01*
X6650Y-5224D02*
Y-5304D01*
X6597D01*
X6570D02*
X6543D01*
X6557D01*
Y-5224D01*
X6570Y-5237D01*
X6528Y-4697D02*
X6541Y-4684D01*
X6568D01*
X6581Y-4697D01*
Y-4751D01*
X6568Y-4764D01*
X6541D01*
X6528Y-4751D01*
X6448Y-4764D02*
X6501D01*
X6448Y-4711D01*
Y-4697D01*
X6461Y-4684D01*
X6488D01*
X6501Y-4697D01*
X6368Y-4684D02*
X6394Y-4697D01*
X6421Y-4724D01*
Y-4751D01*
X6408Y-4764D01*
X6381D01*
X6368Y-4751D01*
Y-4737D01*
X6381Y-4724D01*
X6421D01*
X6581Y-4391D02*
X6501D01*
Y-4431D01*
X6514Y-4444D01*
X6541D01*
X6554Y-4431D01*
Y-4391D01*
Y-4418D02*
X6581Y-4444D01*
Y-4471D02*
Y-4498D01*
Y-4484D01*
X6501D01*
X6514Y-4471D01*
X6581Y-4578D02*
X6501D01*
X6541Y-4538D01*
Y-4591D01*
X6250Y-4676D02*
X6170D01*
Y-4716D01*
X6183Y-4729D01*
X6210D01*
X6223Y-4716D01*
Y-4676D01*
Y-4703D02*
X6250Y-4729D01*
Y-4756D02*
Y-4783D01*
Y-4769D01*
X6170D01*
X6183Y-4756D01*
X6170Y-4876D02*
Y-4823D01*
X6210D01*
X6197Y-4849D01*
Y-4863D01*
X6210Y-4876D01*
X6237D01*
X6250Y-4863D01*
Y-4836D01*
X6237Y-4823D01*
X6402Y-3950D02*
X6481D01*
Y-3910D01*
X6468Y-3897D01*
X6442D01*
X6428Y-3910D01*
Y-3950D01*
Y-3923D02*
X6402Y-3897D01*
Y-3870D02*
Y-3843D01*
Y-3857D01*
X6481D01*
X6468Y-3870D01*
X6481Y-3750D02*
X6468Y-3777D01*
X6442Y-3803D01*
X6415D01*
X6402Y-3790D01*
Y-3763D01*
X6415Y-3750D01*
X6428D01*
X6442Y-3763D01*
Y-3803D01*
X6250Y-3950D02*
X6330D01*
Y-3910D01*
X6317Y-3897D01*
X6290D01*
X6277Y-3910D01*
Y-3950D01*
Y-3923D02*
X6250Y-3897D01*
Y-3870D02*
Y-3843D01*
Y-3857D01*
X6330D01*
X6317Y-3870D01*
X6330Y-3803D02*
Y-3750D01*
X6317D01*
X6263Y-3803D01*
X6250D01*
X5903Y-5167D02*
X5890Y-5180D01*
X5863D01*
X5850Y-5167D01*
Y-5113D01*
X5863Y-5100D01*
X5890D01*
X5903Y-5113D01*
X5930Y-5100D02*
X5957D01*
X5943D01*
Y-5180D01*
X5930Y-5167D01*
X6050Y-5180D02*
X6023Y-5167D01*
X5997Y-5140D01*
Y-5113D01*
X6010Y-5100D01*
X6037D01*
X6050Y-5113D01*
Y-5127D01*
X6037Y-5140D01*
X5997D01*
X5453Y-4553D02*
X5440Y-4540D01*
Y-4513D01*
X5453Y-4500D01*
X5507D01*
X5520Y-4513D01*
Y-4540D01*
X5507Y-4553D01*
X5520Y-4580D02*
Y-4607D01*
Y-4593D01*
X5440D01*
X5453Y-4580D01*
X5440Y-4700D02*
Y-4647D01*
X5480D01*
X5467Y-4673D01*
Y-4687D01*
X5480Y-4700D01*
X5507D01*
X5520Y-4687D01*
Y-4660D01*
X5507Y-4647D01*
X5433Y-4103D02*
X5420Y-4090D01*
Y-4063D01*
X5433Y-4050D01*
X5487D01*
X5500Y-4063D01*
Y-4090D01*
X5487Y-4103D01*
X5500Y-4130D02*
Y-4157D01*
Y-4143D01*
X5420D01*
X5433Y-4130D01*
X5500Y-4237D02*
X5420D01*
X5460Y-4197D01*
Y-4250D01*
X9347Y-4376D02*
X9360Y-4363D01*
X9387D01*
X9400Y-4376D01*
Y-4430D01*
X9387Y-4443D01*
X9360D01*
X9347Y-4430D01*
X9320Y-4376D02*
X9307Y-4363D01*
X9280D01*
X9267Y-4376D01*
Y-4390D01*
X9280Y-4403D01*
X9293D01*
X9280D01*
X9267Y-4416D01*
Y-4430D01*
X9280Y-4443D01*
X9307D01*
X9320Y-4430D01*
X9187Y-4363D02*
X9213Y-4376D01*
X9240Y-4403D01*
Y-4430D01*
X9227Y-4443D01*
X9200D01*
X9187Y-4430D01*
Y-4416D01*
X9200Y-4403D01*
X9240D01*
X6348Y-5237D02*
X6362Y-5224D01*
X6388D01*
X6402Y-5237D01*
Y-5291D01*
X6388Y-5304D01*
X6362D01*
X6348Y-5291D01*
X6322Y-5304D02*
X6295D01*
X6308D01*
Y-5224D01*
X6322Y-5237D01*
X6255Y-5224D02*
X6202D01*
Y-5237D01*
X6255Y-5291D01*
Y-5304D01*
X4481Y-2820D02*
Y-2740D01*
X4441D01*
X4427Y-2754D01*
Y-2780D01*
X4441Y-2794D01*
X4481D01*
X4454D02*
X4427Y-2820D01*
X4401D02*
X4374D01*
X4387D01*
Y-2740D01*
X4401Y-2754D01*
X4334D02*
X4321Y-2740D01*
X4294D01*
X4281Y-2754D01*
Y-2767D01*
X4294Y-2780D01*
X4307D01*
X4294D01*
X4281Y-2794D01*
Y-2807D01*
X4294Y-2820D01*
X4321D01*
X4334Y-2807D01*
X5766Y-4950D02*
X5846D01*
Y-4910D01*
X5833Y-4897D01*
X5806D01*
X5793Y-4910D01*
Y-4950D01*
Y-4923D02*
X5766Y-4897D01*
Y-4817D02*
Y-4870D01*
X5819Y-4817D01*
X5833D01*
X5846Y-4830D01*
Y-4857D01*
X5833Y-4870D01*
X4383Y-3886D02*
X4370Y-3873D01*
Y-3846D01*
X4383Y-3833D01*
X4437D01*
X4450Y-3846D01*
Y-3873D01*
X4437Y-3886D01*
X4383Y-3913D02*
X4370Y-3926D01*
Y-3953D01*
X4383Y-3966D01*
X4397D01*
X4410Y-3953D01*
Y-3940D01*
Y-3953D01*
X4423Y-3966D01*
X4437D01*
X4450Y-3953D01*
Y-3926D01*
X4437Y-3913D01*
X4450Y-3993D02*
Y-4020D01*
Y-4006D01*
X4370D01*
X4383Y-3993D01*
X4282Y-3997D02*
X4295Y-4010D01*
Y-4037D01*
X4282Y-4050D01*
X4228D01*
X4215Y-4037D01*
Y-4010D01*
X4228Y-3997D01*
X4282Y-3970D02*
X4295Y-3957D01*
Y-3930D01*
X4282Y-3917D01*
X4268D01*
X4255Y-3930D01*
Y-3943D01*
Y-3930D01*
X4242Y-3917D01*
X4228D01*
X4215Y-3930D01*
Y-3957D01*
X4228Y-3970D01*
X4282Y-3890D02*
X4295Y-3877D01*
Y-3850D01*
X4282Y-3837D01*
X4228D01*
X4215Y-3850D01*
Y-3877D01*
X4228Y-3890D01*
X4282D01*
X6053Y-3767D02*
X6040Y-3780D01*
X6013D01*
X6000Y-3767D01*
Y-3713D01*
X6013Y-3700D01*
X6040D01*
X6053Y-3713D01*
X6133Y-3700D02*
X6080D01*
X6133Y-3753D01*
Y-3767D01*
X6120Y-3780D01*
X6093D01*
X6080Y-3767D01*
X6160Y-3713D02*
X6173Y-3700D01*
X6200D01*
X6213Y-3713D01*
Y-3767D01*
X6200Y-3780D01*
X6173D01*
X6160Y-3767D01*
Y-3753D01*
X6173Y-3740D01*
X6213D01*
X7323Y-3767D02*
X7337Y-3753D01*
X7363D01*
X7377Y-3767D01*
Y-3820D01*
X7363Y-3833D01*
X7337D01*
X7323Y-3820D01*
X7243Y-3833D02*
X7297D01*
X7243Y-3780D01*
Y-3767D01*
X7257Y-3753D01*
X7283D01*
X7297Y-3767D01*
X7217D02*
X7203Y-3753D01*
X7177D01*
X7163Y-3767D01*
Y-3780D01*
X7177Y-3793D01*
X7163Y-3807D01*
Y-3820D01*
X7177Y-3833D01*
X7203D01*
X7217Y-3820D01*
Y-3807D01*
X7203Y-3793D01*
X7217Y-3780D01*
Y-3767D01*
X7203Y-3793D02*
X7177D01*
X5955Y-5467D02*
X5942Y-5480D01*
X5915D01*
X5902Y-5467D01*
Y-5413D01*
X5915Y-5400D01*
X5942D01*
X5955Y-5413D01*
X6035Y-5400D02*
X5981D01*
X6035Y-5453D01*
Y-5467D01*
X6021Y-5480D01*
X5995D01*
X5981Y-5467D01*
X6061Y-5480D02*
X6115D01*
Y-5467D01*
X6061Y-5413D01*
Y-5400D01*
X6947Y-5237D02*
X6960Y-5224D01*
X6987D01*
X7000Y-5237D01*
Y-5291D01*
X6987Y-5304D01*
X6960D01*
X6947Y-5291D01*
X6920Y-5304D02*
X6893D01*
X6907D01*
Y-5224D01*
X6920Y-5237D01*
X6853D02*
X6840Y-5224D01*
X6813D01*
X6800Y-5237D01*
Y-5251D01*
X6813Y-5264D01*
X6800Y-5277D01*
Y-5291D01*
X6813Y-5304D01*
X6840D01*
X6853Y-5291D01*
Y-5277D01*
X6840Y-5264D01*
X6853Y-5251D01*
Y-5237D01*
X6840Y-5264D02*
X6813D01*
M02*
