M48
;Layer_Color=9474304
;FILE_FORMAT=4:2
METRIC,LZ
;TYPE=PLATED
T1F00S00C0.30
T2F00S00C0.70
T3F00S00C0.76
T4F00S00C1.00
T5F00S00C1.50
%
T01
X002252Y-008794
X002552Y-008594
X002649
X002802Y-008744
X002902
X003052Y-008594
X003152
X003302Y-008744
X003402
X003552Y-008594
X003652
X003802Y-008744
X003902
Y-008024
X003652Y-007824
X003802Y-007431
X003562Y-007334
X00382Y-00655
X001462Y-006318
X0011Y-00725
X004052Y-007527
X004302Y-007624
X004152Y-008204
Y-008594
X004052
X004302Y-008744
X004402
X004552Y-008594
X004652
X004802Y-008744
X004902
X005052Y-008594
X005152
X005302Y-008744
X005402
X005552Y-008594
X005652
X005802Y-008744
X005902
X006052Y-008594
X006152
X006302Y-008744
X006402
X006552Y-008594
X006652
X006802Y-008744
X006902
X007052Y-008594
X007152
X007302Y-008744
X007402
X007602Y-008594
X007702Y-008599
X006872Y-007233
X006672Y-006404
X007066Y-006318
X00585Y-0063
X005342Y-006124
X005787Y-007232
X007952Y-008744
X009101Y-0065
X009097Y-0061
X0091Y-005943
Y-005793
X009101Y-005628
X009152Y-004764
X009052Y-004664
X008962Y-00457
X008862Y-004484
X008782Y-004391
X0086Y-004893
X00818Y-004876
X0082Y-00469
X008102Y-00463
X00811Y-00515
X00798Y-00508
X00819Y-00527
Y-00543
X00811Y-005514
X0082Y-004193
X008102Y-0041
X007973Y-004004
X00815Y-003197
X0089Y-0033
X009232Y-004004
X009332Y-004104
X01005Y-004004
X0097Y-004626
X007231Y-004776
X007066Y-004726
X006916Y-004993
X006781Y-004993
X006366Y-005026
X006266Y-004993
X005766Y-004676
Y-004543
X005981Y-004443
X005566Y-004393
X005766Y-004193
Y-004093
X005552Y-003794
X005649Y-003633
X005866Y-003608
X005952Y-003174
X006302Y-002944
X006322Y-002774
X006281Y-002584
X006381Y-002504
X006482Y-002424
X006581Y-002344
X007066Y-00255
X007322Y-003594
X006866Y-003693
X006402Y-003594
X006716Y-004443
X007216
X007066Y-004193
X007131Y-005356
X007438Y-00558
X007377Y-00568
X006831Y-0059
X006712Y-005824
X005666Y-005241
X005516Y-005093
Y-004826
X004892Y-005304
X004782Y-005374
X00513Y-00558
X00508Y-00568
X004415Y-004341
X004215
X004265Y-003491
X004415
X004777Y-003471
X004792Y-00315
X004643Y-002954
X004262Y-002834
X005Y-00255
X00511
Y-00235
X004992Y-00229
X005392Y-002194
Y-002444
X005662
Y-002194
X005566Y-002874
X0052Y-00305
X005002Y-003744
X003762Y-003684
X00375Y-00345
X003589
X003632Y-00575
X0027
X002123Y-00533
X002Y-005026
Y-004459
X00175
X0013Y-0048
X000684Y-004722
X0011Y-00415
X001462Y-00154
X002802Y-0011
X007882Y-00105
X0077Y-00154
X00811Y-000617
X00855Y-00045
X009467Y-00075
Y-0009
Y-00105
T02
X00043Y-0085
X000684
X000938
X001192
X001446
X0017
X001954
X002208
Y-007738
X001954
X0017
X001446
X001192
X000938
X000684
X00043
T03
X005267Y-006579
X005517Y-006584
X007438Y-006589
Y-006109
T04
X00046Y-003833
X000714
X000968
X001222
X001476
X002432Y-003197
X002686
X00294
X003194
X003448
X00115Y-002
X0009
X00065
X00065Y-00015
X0009
X00115
X00235
X0026
X00285
X00405Y-00015
X0043
X00455
X00575Y-00015
X006
X00625
X00745Y-00015
X0077
X006295Y-001794
X006041
X005787
X005533
X005279
X00915Y-002
X0094
X00965
Y-00015
X0094
X00915
X00795
T05
X00892Y-00275
X00988
X00138
X00042
X00042Y-0009
X00138
X00212
X00308
X00382Y-0009
X00478
X00552Y-0009
X00648
X00722Y-0009
X00818
X00892
X00988
M30
